# xmcd
#
# Track frame offsets:
#	182
#	14420
#	27740
#	40920
#	52720
#	66255
#	81335
#	96250
#	108405
#	119957
#	133315
#	150202
#	163812
#	178885
#	192062
#	203387
#	216150
#	230652
#
# Disc length: 3205 seconds
#
# Revision: 1
# Processed by: cddbd v1.4PL0 Copyright (c) Steve Scherf et al.
# Submitted via: audiograbber 1.80.04
#
DISCID=020c8312
DTITLE=Nat King Cole - De Luxe [CD1)
DYEAR=1900
DGENRE=
TTITLE0=Non Dimenticar
TTITLE1=Never Let Me Go
TTITLE2=Who´s Sorry Now
TTITLE3=Around The World
TTITLE4=September Song
TTITLE5=Lush Life
TTITLE6=Everything Happens To Me
TTITLE7=Autumn leaves
TTITLE8=Lover Come Back To Me!
TTITLE9=Tenderly
TTITLE10=These Foolish Things
TTITLE11=If I Give My Hearth To You
TTITLE12=Lost April
TTITLE13=At Last
TTITLE14=Fascination
TTITLE15=Love Is Here To Stay
TTITLE16=Ain´t Misbehavin´
TTITLE17=Moon Love
EXTD=
EXTT0=
EXTT1=
EXTT2=
EXTT3=
EXTT4=
EXTT5=
EXTT6=
EXTT7=
EXTT8=
EXTT9=
EXTT10=
EXTT11=
EXTT12=
EXTT13=
EXTT14=
EXTT15=
EXTT16=
EXTT17=
PLAYORDER=
